# xmcd
#
# Track frame offsets:
#	150
#	13713
#	27153
#	40748
#	52790
#	67386
#	81519
#	98046
#	109552
#	122460
#	129385
#	138439
#	144393
#	156699
#	173421
#	186959
#	199804
#	213777
#	224271
#	232173
#	250841
#	264678
#	278570
#	291635
#	304769
#	317605
#	322636
#	327448
#	341238
#	344914
#
# Disc length: 4780 seconds
#
# Revision: 0
# Processed by: cddbd v1.5.2PL0 Copyright (c) Steve Scherf et al.
# Submitted via: EZCDAudioConverter 9.0.7.1
#
DISCID=cc12aa1e
DTITLE=sundry - Oh, Listen Today
DYEAR=2019
DGENRE=
TTITLE0=The Highlanders - Flop Eared Mule
TTITLE1=Ed Haley - Humphrey's Jig
TTITLE2=Jimmy Johnson's String Band - Jenny Baker
TTITLE3=Fiddlin' Doc Roberts - Waynesburgh
TTITLE4=Narmour and Smith - Charleston No 3
TTITLE5=The North Carolina Ramblers - Too Young to Marry
TTITLE6=Jasper Bisbee - Devil's Dream
TTITLE7=Fiddlin' Doc Roberts - Buck Creek Gal
TTITLE8=Ed Haley - Grey Eagle
TTITLE9=Cuje Bertram - Billie in the Low Ground
TTITLE10=Emmett Lundy - Fisher's Hornpipe
TTITLE11=Marcus Martin - Booth
TTITLE12=The Red Headed Fiddlers - Fire in the Mountain
TTITLE13=Allen Sisson - Sally Brown Jig
TTITLE14=Nester and Edmonds - Black Eyed susie
TTITLE15=Ed Haley - Wilsons Jig
TTITLE16=Kessinger Brothers - Salt River
TTITLE17=Emmett Lundy - Natchez Under the Hill
TTITLE18=Ernie Carpenter - Grandad's Favorite
TTITLE19=Edden Hammonds - Queen of the Earth and Child of the Skies
TTITLE20=Kessinger Brothers - Polka Four
TTITLE21=Ed Haley - Wake up Susan
TTITLE22=Carter Brothers and Son - Jenny on the Railroad
TTITLE23=Fiddlin' Sam Long - Seneca Square Dance
TTITLE24=Ed Haley - Indian Ate the Woodchuck
TTITLE25=Manco Sneed - Lady Hamilton
TTITLE26=Marion Reece - Scolding Wife
TTITLE27=The Blue Rudge Mountaineers - Old Flannigan
TTITLE28=Manco Sneed - Cumberland Gap
TTITLE29=The North Carolina Ramblers - The Old Clay Pipe
EXTD=
EXTT0=
EXTT1=
EXTT2=
EXTT3=
EXTT4=
EXTT5=
EXTT6=
EXTT7=
EXTT8=
EXTT9=
EXTT10=
EXTT11=
EXTT12=
EXTT13=
EXTT14=
EXTT15=
EXTT16=
EXTT17=
EXTT18=
EXTT19=
EXTT20=
EXTT21=
EXTT22=
EXTT23=
EXTT24=
EXTT25=
EXTT26=
EXTT27=
EXTT28=
EXTT29=
PLAYORDER=
